<svg id="Groupe_162" data-name="Groupe 162" xmlns="http://www.w3.org/2000/svg" width="51.138" height="35.741" viewBox="0 0 51.138 35.741">
  <g id="Groupe_139" data-name="Groupe 139" transform="translate(36.241 16.822)">
    <g id="Groupe_136" data-name="Groupe 136">
      <path id="Tracé_24" data-name="Tracé 24" d="M849.328,388.246a1.888,1.888,0,0,1-1.16-.4l-.233-.178a1.9,1.9,0,1,1,2.285-3.028l.27.206a1.9,1.9,0,0,1-1.163,3.4Z" transform="translate(-847.181 -384.26)"/>
    </g>
    <g id="Groupe_137" data-name="Groupe 137" transform="translate(0.759 0.596)">
      <path id="Tracé_25" data-name="Tracé 25" d="M858.613,402.562a1.9,1.9,0,0,1-1.848-1.475c-.044-.2-.091-.389-.14-.582a1.825,1.825,0,0,1-.052-.3,1.936,1.936,0,0,1-.1-.283c-.055-.193-.111-.385-.171-.575a2.032,2.032,0,0,1-.066-.292,1.943,1.943,0,0,1-.118-.275q-.1-.285-.2-.566a1.868,1.868,0,0,1-.082-.289,1.909,1.909,0,0,1-.134-.273q-.111-.277-.228-.55a1.963,1.963,0,0,1-.1-.286,1.914,1.914,0,0,1-.146-.26q-.126-.273-.259-.542a1.822,1.822,0,0,1-.111-.279,1.872,1.872,0,0,1-.162-.257q-.139-.266-.284-.526a1.777,1.777,0,0,1-.125-.271,1.914,1.914,0,0,1-.175-.247q-.153-.258-.312-.51a1.641,1.641,0,0,0-.327-.5c-.111-.166-.223-.329-.338-.491a1.959,1.959,0,0,1-.154-.259,1.937,1.937,0,0,1-.2-.228c-.118-.159-.24-.316-.363-.472a1.869,1.869,0,0,1-.167-.25,1.834,1.834,0,0,1-.211-.216q-.192-.229-.388-.452a1.918,1.918,0,0,1-.181-.242,1.87,1.87,0,0,1-.22-.2c-.136-.147-.274-.291-.414-.434a1.807,1.807,0,0,1-.192-.229,1.827,1.827,0,0,1-.231-.191q-.215-.208-.435-.409a1.909,1.909,0,0,1-.2-.219,1.94,1.94,0,0,1-.245-.181q-.224-.194-.453-.383a1.9,1.9,0,0,1,2.4-2.935q.273.223.539.455a1.943,1.943,0,0,1,.24.25,1.9,1.9,0,0,1,.28.213c.172.158.342.317.51.48a1.878,1.878,0,0,1,.229.266,1.906,1.906,0,0,1,.269.228q.245.249.482.505a1.912,1.912,0,0,1,.215.278,1.948,1.948,0,0,1,.254.24c.154.176.307.353.457.534a1.885,1.885,0,0,1,.2.288,1.908,1.908,0,0,1,.241.253q.218.275.428.557a1.9,1.9,0,0,1,.181.3,1.88,1.88,0,0,1,.228.266q.2.286.4.579a1.956,1.956,0,0,1,.166.305,1.927,1.927,0,0,1,.214.279q.186.3.365.6a2.223,2.223,0,0,0,.349.6q.171.305.333.615a1.921,1.921,0,0,1,.133.321,1.879,1.879,0,0,1,.183.3q.154.312.3.629a2.209,2.209,0,0,0,.283.638q.138.321.268.648a1.921,1.921,0,0,1,.1.333,1.876,1.876,0,0,1,.151.317c.08.217.158.436.233.656a1.886,1.886,0,0,1,.082.341,1.907,1.907,0,0,1,.134.324q.1.332.2.668a1.808,1.808,0,0,1,.064.343,1.872,1.872,0,0,1,.118.329q.086.337.164.678a1.9,1.9,0,0,1-1.852,2.319Z" transform="translate(-848.381 -385.203)"/>
    </g>
    <g id="Groupe_138" data-name="Groupe 138" transform="translate(9.235 14.813)">
      <path id="Tracé_26" data-name="Tracé 26" d="M863.739,411.79a1.9,1.9,0,0,1-1.862-1.548l-.056-.288a1.9,1.9,0,1,1,3.721-.744l.065.333a1.9,1.9,0,0,1-1.867,2.247Z" transform="translate(-861.784 -407.685)"/>
    </g>
  </g>
  <g id="Groupe_143" data-name="Groupe 143" transform="translate(0 17.157)">
    <g id="Groupe_140" data-name="Groupe 140" transform="translate(0 12.546)">
      <path id="Tracé_27" data-name="Tracé 27" d="M791.77,408.728a1.9,1.9,0,0,1-1.833-2.393l.092-.333a1.9,1.9,0,1,1,3.647,1.046l-.077.277A1.9,1.9,0,0,1,791.77,408.728Z" transform="translate(-789.871 -404.628)"/>
    </g>
    <g id="Groupe_141" data-name="Groupe 141" transform="translate(0.271 0.615)">
      <path id="Tracé_28" data-name="Tracé 28" d="M792.2,400.863a1.9,1.9,0,0,1-1.812-2.463q.1-.334.217-.665a1.879,1.879,0,0,1,.145-.324,1.931,1.931,0,0,1,.091-.34q.122-.329.253-.656a1.986,1.986,0,0,1,.16-.312,1.943,1.943,0,0,1,.109-.334q.14-.324.287-.643a1.875,1.875,0,0,1,.175-.3,1.946,1.946,0,0,1,.127-.33q.156-.315.319-.625a1.933,1.933,0,0,1,.193-.295,1.9,1.9,0,0,1,.144-.323q.172-.305.352-.606a1.938,1.938,0,0,1,.208-.285,1.878,1.878,0,0,1,.161-.314c.125-.2.253-.392.383-.586a1.923,1.923,0,0,1,.223-.274,1.96,1.96,0,0,1,.177-.3q.2-.286.416-.568a2.23,2.23,0,0,0,.43-.555q.219-.276.445-.545a1.935,1.935,0,0,1,.25-.248,1.98,1.98,0,0,1,.208-.283q.234-.264.475-.52a2.248,2.248,0,0,0,.486-.506c.166-.168.334-.334.5-.5a1.906,1.906,0,0,1,.273-.217,1.953,1.953,0,0,1,.238-.26q.262-.237.529-.467a1.9,1.9,0,0,1,2.47,2.881q-.227.194-.449.4a1.661,1.661,0,0,0-.441.412q-.216.206-.425.419a1.655,1.655,0,0,0-.418.434q-.205.218-.4.443a2.011,2.011,0,0,1-.218.21,1.9,1.9,0,0,1-.176.245c-.129.154-.255.309-.379.465a1.638,1.638,0,0,0-.369.476c-.12.159-.239.321-.354.484a1.874,1.874,0,0,1-.195.232,1.922,1.922,0,0,1-.147.262q-.168.25-.331.506a1.927,1.927,0,0,1-.181.242,1.9,1.9,0,0,1-.134.269q-.154.259-.3.522a1.643,1.643,0,0,0-.287.527q-.14.267-.274.537a1.936,1.936,0,0,1-.155.259,1.832,1.832,0,0,1-.106.286q-.126.272-.245.548a1.915,1.915,0,0,1-.141.267,1.957,1.957,0,0,1-.09.29c-.075.186-.147.373-.217.561a1.9,1.9,0,0,1-.127.275,1.874,1.874,0,0,1-.074.29q-.1.285-.187.575A1.9,1.9,0,0,1,792.2,400.863Z" transform="translate(-790.299 -385.761)"/>
    </g>
    <g id="Groupe_142" data-name="Groupe 142" transform="translate(8.174)">
      <path id="Tracé_29" data-name="Tracé 29" d="M804.7,388.78a1.9,1.9,0,0,1-1.2-3.37l.265-.212a1.9,1.9,0,1,1,2.354,2.976l-.228.183A1.89,1.89,0,0,1,804.7,388.78Z" transform="translate(-802.797 -384.789)"/>
    </g>
  </g>
  <g id="Groupe_144" data-name="Groupe 144" transform="translate(51.138 31.499)">
    <path id="Tracé_30" data-name="Tracé 30" d="M891,429" transform="translate(-891 -429)"/>
  </g>
  <g id="Groupe_151" data-name="Groupe 151" transform="translate(13.091)">
    <g id="Groupe_147" data-name="Groupe 147" transform="translate(8.884)">
      <g id="Groupe_145" data-name="Groupe 145" transform="translate(2.691 2.691)">
        <line id="Ligne_15" data-name="Ligne 15" y2="17.767" fill="#fff"/>
      </g>
      <g id="Groupe_146" data-name="Groupe 146">
        <path id="Tracé_31" data-name="Tracé 31" d="M828.567,390.951a2.691,2.691,0,0,1-2.691-2.691V370.493a2.691,2.691,0,0,1,5.382,0V388.26A2.691,2.691,0,0,1,828.567,390.951Z" transform="translate(-825.876 -367.802)"/>
      </g>
    </g>
    <g id="Groupe_150" data-name="Groupe 150" transform="translate(0 8.884)">
      <g id="Groupe_148" data-name="Groupe 148" transform="translate(2.691 2.691)">
        <line id="Ligne_16" data-name="Ligne 16" x2="17.767" fill="#fff"/>
      </g>
      <g id="Groupe_149" data-name="Groupe 149">
        <path id="Tracé_32" data-name="Tracé 32" d="M836.431,383.088H818.663a2.691,2.691,0,0,1,0-5.382h17.768a2.691,2.691,0,1,1,0,5.382Z" transform="translate(-815.972 -377.706)"/>
      </g>
    </g>
  </g>
</svg>
