<svg id="Groupe_134" data-name="Groupe 134" xmlns="http://www.w3.org/2000/svg" width="56.382" height="31.75" viewBox="0 0 56.382 31.75">
  <g id="Groupe_119" data-name="Groupe 119">
    <g id="Groupe_118" data-name="Groupe 118">
      <path id="Tracé_19" data-name="Tracé 19" d="M751.674,663h-.22a15.87,15.87,0,1,1,.22,0Zm-.011-28.762a12.887,12.887,0,0,0-.168,25.772h0a12.886,12.886,0,1,0,.347-25.771Z" transform="translate(-735.792 -631.25)"/>
    </g>
  </g>
  <g id="Groupe_122" data-name="Groupe 122" transform="translate(36.401 7.991)">
    <g id="Groupe_121" data-name="Groupe 121" transform="translate(0 0)">
      <path id="Tracé_20" data-name="Tracé 20" d="M816.152,661.836h-.1a7.271,7.271,0,0,1,.1-14.541h.1a7.271,7.271,0,0,1-.1,14.541Zm-.059-2.989h.058a4.29,4.29,0,1,0-.058,0Z" transform="translate(-808.88 -647.295)"/>
    </g>
  </g>
  <g id="Groupe_123" data-name="Groupe 123" transform="translate(56.382 23.283)">
    <path id="Tracé_21" data-name="Tracé 21" d="M849,678" transform="translate(-849 -678)"/>
  </g>
  <g id="Groupe_130" data-name="Groupe 130" transform="translate(15.875 3.546) rotate(45)">
    <g id="Groupe_126" data-name="Groupe 126" transform="translate(6.696)">
      <g id="Groupe_124" data-name="Groupe 124" transform="translate(2.021 2.021)">
        <line id="Ligne_12" data-name="Ligne 12" y2="13.393" fill="#fff"/>
      </g>
      <g id="Groupe_125" data-name="Groupe 125">
        <path id="Tracé_22" data-name="Tracé 22" d="M2.021,17.436A2.021,2.021,0,0,1,0,15.415V2.021a2.021,2.021,0,1,1,4.042,0V15.415A2.021,2.021,0,0,1,2.021,17.436Z"/>
      </g>
    </g>
    <g id="Groupe_129" data-name="Groupe 129" transform="translate(0 6.697)">
      <g id="Groupe_127" data-name="Groupe 127" transform="translate(2.021 2.021)">
        <line id="Ligne_13" data-name="Ligne 13" x2="13.393" fill="#fff"/>
      </g>
      <g id="Groupe_128" data-name="Groupe 128" transform="translate(0)">
        <path id="Tracé_23" data-name="Tracé 23" d="M15.414,4.042H2.021A2.021,2.021,0,1,1,2.021,0H15.414a2.021,2.021,0,1,1,0,4.042Z"/>
      </g>
    </g>
  </g>
  <g id="Groupe_133" data-name="Groupe 133" transform="translate(29.821 13.856)">
    <g id="Groupe_131" data-name="Groupe 131" transform="translate(0.014 1.494)">
      <line id="Ligne_14" data-name="Ligne 14" x1="8.448" y1="0.078" fill="#fff"/>
    </g>
    <g id="Groupe_132" data-name="Groupe 132">
      <rect id="Rectangle_13" data-name="Rectangle 13" width="2.988" height="8.448" transform="translate(0 2.988) rotate(-89.472)"/>
    </g>
  </g>
</svg>
