<svg xmlns="http://www.w3.org/2000/svg" width="56" height="51.011" viewBox="0 0 56 51.011">
  <g id="Groupe_114" data-name="Groupe 114" transform="translate(-737.218 -486.378)">
    <g id="Groupe_41" data-name="Groupe 41" transform="translate(755.475 486.378)">
      <g id="Groupe_40" data-name="Groupe 40">
        <g id="Groupe_39" data-name="Groupe 39">
          <path id="Tracé_7" data-name="Tracé 7" d="M782.011,501.368h-.1a7.495,7.495,0,1,1,5.329-2.124l-1.046-1.074,1.046,1.074A7.446,7.446,0,0,1,782.011,501.368Zm0-11.992a4.51,4.51,0,1,0,.062,0Z" transform="translate(-774.517 -486.378)"/>
        </g>
      </g>
    </g>
    <g id="Groupe_46" data-name="Groupe 46" transform="translate(768.939 499.94)">
      <g id="Groupe_43" data-name="Groupe 43" transform="translate(1.079 1.041)">
        <g id="Groupe_42" data-name="Groupe 42">
          <line id="Ligne_6" data-name="Ligne 6" x2="6.593" y2="6.831" fill="#fff"/>
        </g>
      </g>
      <g id="Groupe_45" data-name="Groupe 45" transform="translate(0 0)">
        <g id="Groupe_44" data-name="Groupe 44" transform="translate(0)">
          <rect id="Rectangle_9" data-name="Rectangle 9" width="2.998" height="9.494" transform="translate(0 2.082) rotate(-43.987)"/>
        </g>
      </g>
    </g>
    <g id="Groupe_56" data-name="Groupe 56" transform="translate(773.103 504.218)">
      <g id="Groupe_55" data-name="Groupe 55" transform="translate(0)">
        <g id="Groupe_54" data-name="Groupe 54">
          <path id="Tracé_9" data-name="Tracé 9" d="M818.243,537.841h-.1a7.518,7.518,0,1,1,.1,0Zm-.005-11.992a4.5,4.5,0,0,0-.058,8.993h0a4.5,4.5,0,1,0,.121-8.993Z" transform="translate(-810.744 -522.852)"/>
        </g>
      </g>
    </g>
    <g id="Groupe_61" data-name="Groupe 61" transform="translate(737.218 504.618)">
      <g id="Groupe_60" data-name="Groupe 60">
        <g id="Groupe_59" data-name="Groupe 59">
          <path id="Tracé_10" data-name="Tracé 10" d="M744.715,538.66h-.1a7.5,7.5,0,0,1,.2-14.989h0a7.5,7.5,0,0,1-.1,14.989Zm0-11.992a4.5,4.5,0,0,0-.06,8.993h.061a4.5,4.5,0,0,0,.06-8.994h-.061Z" transform="translate(-737.218 -523.67)"/>
        </g>
      </g>
    </g>
    <g id="Groupe_66" data-name="Groupe 66" transform="translate(755.015 522.399)">
      <g id="Groupe_65" data-name="Groupe 65" transform="translate(0)">
        <g id="Groupe_64" data-name="Groupe 64">
          <path id="Tracé_11" data-name="Tracé 11" d="M781.072,575.014h-.1a7.528,7.528,0,1,1,.1,0Zm0-11.992a4.466,4.466,0,0,0-3.135,1.275h0a4.5,4.5,0,1,0,3.2-1.274Z" transform="translate(-773.578 -560.024)"/>
        </g>
      </g>
    </g>
    <g id="Groupe_71" data-name="Groupe 71" transform="translate(755.012 522.399)">
      <g id="Groupe_70" data-name="Groupe 70" transform="translate(0)">
        <g id="Groupe_69" data-name="Groupe 69">
          <path id="Tracé_12" data-name="Tracé 12" d="M781.067,575.014h-.1a7.5,7.5,0,0,1,.2-14.989h0a7.5,7.5,0,0,1-.1,14.989Zm0-11.992a4.5,4.5,0,0,0-.06,8.993h.061a4.5,4.5,0,0,0,.06-8.993Z" transform="translate(-773.571 -560.023)"/>
        </g>
      </g>
    </g>
    <g id="Groupe_76" data-name="Groupe 76" transform="translate(748.064 499.908)">
      <g id="Groupe_73" data-name="Groupe 73" transform="translate(1.049 1.07)">
        <g id="Groupe_72" data-name="Groupe 72">
          <line id="Ligne_7" data-name="Ligne 7" x1="7.13" y2="6.993" fill="#fff"/>
        </g>
      </g>
      <g id="Groupe_75" data-name="Groupe 75" transform="translate(0 0)">
        <g id="Groupe_74" data-name="Groupe 74">
          <rect id="Rectangle_10" data-name="Rectangle 10" width="9.987" height="2.998" transform="translate(0 6.993) rotate(-44.446)"/>
        </g>
      </g>
    </g>
    <g id="Groupe_81" data-name="Groupe 81" transform="translate(737.218 504.618)">
      <g id="Groupe_80" data-name="Groupe 80">
        <g id="Groupe_79" data-name="Groupe 79">
          <path id="Tracé_13" data-name="Tracé 13" d="M744.715,538.66h-.1a7.527,7.527,0,1,1,.1,0Zm0-11.992a4.5,4.5,0,0,0-.059,8.993h.061a4.5,4.5,0,0,0,4.5-4.436h0a4.5,4.5,0,0,0-4.436-4.557Z" transform="translate(-737.218 -523.67)"/>
        </g>
      </g>
    </g>
    <g id="Groupe_86" data-name="Groupe 86" transform="translate(750.189 517.967)">
      <g id="Groupe_83" data-name="Groupe 83" transform="translate(1.07 1.05)">
        <g id="Groupe_82" data-name="Groupe 82">
          <line id="Ligne_8" data-name="Ligne 8" x1="6.993" y1="7.13" fill="#fff"/>
        </g>
      </g>
      <g id="Groupe_85" data-name="Groupe 85" transform="translate(0 0)">
        <g id="Groupe_84" data-name="Groupe 84">
          <rect id="Rectangle_11" data-name="Rectangle 11" width="2.998" height="9.987" transform="translate(0 2.099) rotate(-44.444)"/>
        </g>
      </g>
    </g>
    <g id="Groupe_91" data-name="Groupe 91" transform="translate(755.015 522.399)">
      <g id="Groupe_90" data-name="Groupe 90" transform="translate(0)">
        <g id="Groupe_89" data-name="Groupe 89">
          <path id="Tracé_14" data-name="Tracé 14" d="M781.072,575.014h-.1a7.528,7.528,0,1,1,.1,0Zm0-11.992a4.5,4.5,0,1,0,3.224,1.361h0a4.468,4.468,0,0,0-3.162-1.36Z" transform="translate(-773.578 -560.024)"/>
        </g>
      </g>
    </g>
    <g id="Groupe_96" data-name="Groupe 96" transform="translate(755.012 522.399)">
      <g id="Groupe_95" data-name="Groupe 95" transform="translate(0)">
        <g id="Groupe_94" data-name="Groupe 94">
          <path id="Tracé_15" data-name="Tracé 15" d="M781.067,575.014h-.1a7.5,7.5,0,1,1,.1,0Zm0-11.992a4.5,4.5,0,0,0-.06,8.993h.061a4.5,4.5,0,0,0,.06-8.993Z" transform="translate(-773.571 -560.023)"/>
        </g>
      </g>
    </g>
    <g id="Groupe_101" data-name="Groupe 101" transform="translate(765.253 517.64)">
      <g id="Groupe_98" data-name="Groupe 98" transform="translate(1.049 1.07)">
        <g id="Groupe_97" data-name="Groupe 97">
          <line id="Ligne_9" data-name="Ligne 9" y1="6.993" x2="7.13" fill="#fff"/>
        </g>
      </g>
      <g id="Groupe_100" data-name="Groupe 100" transform="translate(0 0)">
        <g id="Groupe_99" data-name="Groupe 99">
          <rect id="Rectangle_12" data-name="Rectangle 12" width="9.987" height="2.998" transform="translate(0 6.993) rotate(-44.446)"/>
        </g>
      </g>
    </g>
    <g id="Groupe_103" data-name="Groupe 103" transform="translate(793.218 519.659)">
      <g id="Groupe_102" data-name="Groupe 102">
        <path id="Tracé_16" data-name="Tracé 16" d="M851,554" transform="translate(-851 -554)" fill="#fff" stroke="#000" stroke-miterlimit="10" stroke-width="6"/>
      </g>
    </g>
    <g id="Groupe_108" data-name="Groupe 108" transform="translate(761.526 507.153)">
      <g id="Groupe_105" data-name="Groupe 105" transform="translate(1.184 1.184)">
        <g id="Groupe_104" data-name="Groupe 104">
          <line id="Ligne_10" data-name="Ligne 10" y2="8.118" fill="#fff"/>
        </g>
      </g>
      <g id="Groupe_107" data-name="Groupe 107">
        <g id="Groupe_106" data-name="Groupe 106">
          <path id="Tracé_17" data-name="Tracé 17" d="M786.684,534.236a1.184,1.184,0,0,1-1.184-1.184v-8.118a1.184,1.184,0,0,1,2.368,0v8.118A1.184,1.184,0,0,1,786.684,534.236Z" transform="translate(-785.5 -523.75)"/>
        </g>
      </g>
    </g>
    <g id="Groupe_113" data-name="Groupe 113" transform="translate(757.475 511.214)">
      <g id="Groupe_110" data-name="Groupe 110" transform="translate(1.184 1.184)">
        <g id="Groupe_109" data-name="Groupe 109">
          <line id="Ligne_11" data-name="Ligne 11" x2="8.118" fill="#fff"/>
        </g>
      </g>
      <g id="Groupe_112" data-name="Groupe 112" transform="translate(0)">
        <g id="Groupe_111" data-name="Groupe 111">
          <path id="Tracé_18" data-name="Tracé 18" d="M782.8,538.118h-8.118a1.184,1.184,0,1,1,0-2.368H782.8a1.184,1.184,0,1,1,0,2.368Z" transform="translate(-773.5 -535.75)"/>
        </g>
      </g>
    </g>
  </g>
</svg>
